<!-- <svg xmlns="http://www.w3.org/2000/svg" viewBox="0 0 24 24" class="icon-search"><circle cx="10" cy="10" r="7" class="primary" fill="white"/><path class="secondary" d="M16.32 14.9l1.1 1.1c.4-.02.83.13 1.14.44l3 3a1.5 1.5 0 0 1-2.12 2.12l-3-3a1.5 1.5 0 0 1-.44-1.14l-1.1-1.1a8 8 0 1 1 1.41-1.41zM10 16a6 6 0 1 0 0-12 6 6 0 0 0 0 12z" fill="#a0aec0"/></svg> -->

<svg xmlns="http://www.w3.org/2000/svg" xmlns:xlink="http://www.w3.org/1999/xlink" version="1.1" id="Capa_1" x="0px" y="0px" viewBox="0 0 56.966 56.966" style="enable-background:new 0 0 56.966 56.966;" xml:space="preserve" width="512px" height="512px">
      <path d="M55.146,51.887L41.588,37.786c3.486-4.144,5.396-9.358,5.396-14.786c0-12.682-10.318-23-23-23s-23,10.318-23,23  s10.318,23,23,23c4.761,0,9.298-1.436,13.177-4.162l13.661,14.208c0.571,0.593,1.339,0.92,2.162,0.92  c0.779,0,1.518-0.297,2.079-0.837C56.255,54.982,56.293,53.08,55.146,51.887z M23.984,6c9.374,0,17,7.626,17,17s-7.626,17-17,17  s-17-7.626-17-17S14.61,6,23.984,6z" fill="#4a5568"/>
    </svg>